<?xml version="1.0" encoding="UTF-8"?> <svg xmlns="http://www.w3.org/2000/svg" xmlns:xlink="http://www.w3.org/1999/xlink" version="1.1" id="Layer_1" x="0px" y="0px" width="138px" height="35px" viewBox="0 0 138 35" style="enable-background:new 0 0 138 35;" xml:space="preserve"> <style type="text/css"> .st0{clip-path:url(#SVGID_00000111161276642064190110000012004625751983426193_);} .st1{fill:#F98012;} .st2{fill:#333333;} </style> <g> <defs> <rect id="SVGID_1_" y="0" width="138" height="35"></rect> </defs> <clipPath id="SVGID_00000031168385298193589750000000014889535413256098_"> <use xlink:href="#SVGID_1_" style="overflow:visible;"></use> </clipPath> <g style="clip-path:url(#SVGID_00000031168385298193589750000000014889535413256098_);"> <path class="st1" d="M31,34.4v-12c0-2.5-1-3.8-3-3.8c-2,0-3,1.3-3,3.8v12h-5.9v-12c0-2.5-1-3.8-3-3.8c-2,0-3,1.3-3,3.8v12H7.3 V21.6c0-2.6,0.9-4.6,2.6-5.9c1.5-1.2,3.6-1.8,6.3-1.8c2.7,0,4.6,0.7,5.9,2.1c1.1-1.4,3.1-2.1,6-2.1c2.6,0,4.7,0.6,6.3,1.8 C36.1,17,37,19,37,21.6v12.7H31z"></path> <path class="st1" d="M103.5,34.3V0h5.9v34.3H103.5z"></path> <path class="st1" d="M95.9,34.3v-2c-0.5,0.7-1.4,1.3-2.7,1.7c-1.1,0.4-2.2,0.6-3.2,0.6c-2.8,0-5.1-1-6.8-3c-1.7-2-2.6-4.5-2.6-7.4 c0-2.9,0.8-5.4,2.5-7.3c1.5-1.7,3.9-2.9,6.7-2.9c3.1,0,5,1.2,6.1,2.6V0h5.8v34.3H95.9z M95.9,22.9c0-1.1-0.5-2.1-1.5-3.1 s-2-1.5-3.1-1.5c-1.5,0-2.7,0.6-3.6,1.9c-0.8,1.1-1.2,2.5-1.2,4.2c0,1.6,0.4,3,1.2,4.1c0.9,1.3,2.1,2,3.6,2c0.9,0,1.9-0.4,3-1.3 c1.1-0.9,1.6-1.8,1.6-2.8V22.9z"></path> <path class="st1" d="M69.5,34.8c-3,0-5.5-1-7.4-2.9s-2.9-4.5-2.9-7.6c0-3.1,1-5.6,2.9-7.6c2-2,4.4-3,7.4-2.9c3,0,5.5,1,7.4,2.9 c2,2,3,4.5,3,7.6c0,3.1-1,5.6-3,7.6C75,33.9,72.5,34.8,69.5,34.8z M69.5,18.7c-1.4,0-2.5,0.6-3.3,1.7c-0.8,1.1-1.1,2.4-1.1,4 c0,1.5,0.4,2.8,1.1,3.9c0.8,1.2,1.9,1.8,3.4,1.8c1.4,0,2.5-0.6,3.4-1.8c0.7-1.1,1.1-2.4,1.1-3.9s-0.4-2.8-1.1-3.9 C72.1,19.3,71,18.7,69.5,18.7z"></path> <path class="st1" d="M48.1,34.8c-3,0-5.5-1-7.4-2.9s-2.9-4.5-2.9-7.6c0-3.1,1-5.6,2.9-7.6c2-2,4.4-3,7.4-2.9c3,0,5.5,1,7.4,2.9 c2,2,3,4.5,3,7.6c0,3.1-1,5.6-3,7.6C53.6,33.9,51.1,34.8,48.1,34.8z M48.1,18.7c-1.4,0-2.5,0.6-3.3,1.7c-0.8,1.1-1.1,2.4-1.1,4 c0,1.5,0.4,2.8,1.1,3.9c0.8,1.2,1.9,1.8,3.4,1.8c1.4,0,2.5-0.6,3.4-1.8c0.7-1.1,1.1-2.4,1.1-3.9c0-1.5-0.4-2.8-1.1-3.9 C50.7,19.3,49.6,18.7,48.1,18.7z"></path> <path class="st1" d="M116.4,26.2c0.1,1.5,2,4.6,5,4.6c2.9,0,4.3-1.7,4.4-2.5l6.2-0.1c-0.7,2.1-3.4,6.7-10.7,6.7 c-3,0-5.8-1-7.8-2.9c-2-1.9-3-4.5-3-7.6c0-3.2,1-5.8,3-7.7c2-1.9,4.6-2.9,7.7-2.9c3.4,0,6.1,1.2,8.1,3.5c1.8,2.2,2.7,5.1,2.7,8.8 L116.4,26.2z M126,22.4c-0.2-1.3-0.8-2.4-1.6-3.2c-0.9-0.9-2-1.4-3.2-1.4c-1.2,0-2.3,0.4-3.1,1.3c-0.8,0.9-1.4,2-1.7,3.3L126,22.4 z"></path> <path class="st2" d="M18.7,13l5.9-4.4l-0.1-0.3C13.9,9.6,9.1,10.6,0,16l0.1,0.2l0.7,0c-0.1,0.8-0.2,2.6,0,5.4c-1,3,0,5.1,0.9,7.3 c0.1-2.3,0.1-4.9-0.6-7.4c-0.1-2.8,0-4.6,0-5.3l6,0.1c0,0,0,1.9,0.2,3.7c5.4,2,10.8,0,13.7-4.8C20.3,14.2,18.7,13,18.7,13z"></path> <path class="st2" d="M133.5,35H133v-2.7h-0.9v-0.5h2.3v0.5h-0.9V35z M136.1,35l-0.9-2.5h0l0,0.6V35h-0.5v-3.2h0.8l0.8,2.5l0.9-2.5 h0.8V35h-0.5v-1.9l0-0.6h0l-0.9,2.5L136.1,35z"></path> </g> </g> </svg> 